<?xml version="1.0" standalone="no"?>
<!DOCTYPE svg PUBLIC "-//W3C//DTD SVG 20010904//EN"
 "http://www.w3.org/TR/2001/REC-SVG-20010904/DTD/svg10.dtd">
<svg version="1.0" xmlns="http://www.w3.org/2000/svg"
 width="319.000000pt" height="253.000000pt" viewBox="0 0 319.000000 253.000000"
 preserveAspectRatio="xMidYMid meet">

<g transform="translate(0.000000,253.000000) scale(0.100000,-0.100000)"
fill="#000000" stroke="none">
<path d="M0 2231 l0 -300 48 -4 47 -3 -47 -2 c-85 -3 -53 -22 38 -22 56 0 83
4 79 10 -4 6 -15 8 -24 5 -14 -4 -18 1 -18 25 0 30 0 30 19 10 36 -38 65 -52
86 -41 14 7 19 7 19 -4 0 -8 -4 -12 -8 -10 -4 3 -18 1 -31 -4 -21 -9 -21 -10
-3 -12 11 -2 -14 -5 -55 -9 l-75 -6 93 -2 c56 -1 92 2 92 8 0 6 19 10 43 10
33 1 50 8 80 33 32 28 39 40 41 77 2 25 5 52 7 60 5 20 39 39 58 32 9 -3 12
-1 7 6 -4 7 -28 12 -54 12 -34 0 -43 3 -32 10 12 8 10 10 -10 11 -19 0 -21 2
-8 7 15 6 14 12 -13 52 -35 53 -45 60 -81 60 -33 0 -36 -16 -7 -46 l20 -21
-25 4 c-14 3 -24 9 -21 13 5 8 -41 52 -73 69 -11 6 -28 8 -38 4 -12 -4 -15 -3
-10 5 4 7 14 12 22 12 8 0 14 8 15 18 0 13 2 12 9 -5 5 -13 17 -23 26 -23 10
0 14 -3 11 -7 -8 -7 11 -33 24 -33 13 0 11 28 -2 32 -7 2 -5 9 5 17 14 12 16
11 16 -8 0 -34 55 -29 91 10 l29 31 -15 -36 c-17 -41 -9 -71 32 -120 28 -34
59 -50 68 -35 4 5 11 7 16 4 5 -3 6 0 3 8 -3 8 2 20 11 27 8 7 15 17 15 23 0
15 52 118 57 113 2 -2 -3 -18 -11 -35 -9 -16 -16 -32 -16 -35 0 -3 23 -4 50
-2 38 3 50 1 50 -10 0 -8 10 -14 25 -14 28 0 32 12 10 33 -20 20 -10 22 103
22 50 -1 92 2 92 5 0 3 -10 14 -22 25 -14 11 -18 20 -11 22 9 3 9 12 2 29 -14
39 -9 64 6 29 7 -16 17 -29 22 -27 9 2 10 7 12 50 1 19 4 23 10 13 7 -10 12
-8 24 10 9 12 14 26 11 30 -2 4 0 10 6 14 5 3 10 0 10 -7 0 -7 14 7 30 32 l30
45 -26 3 c-14 2 -32 -2 -40 -9 -10 -8 -14 -8 -14 0 0 6 -7 11 -16 11 -9 0 -12
-5 -8 -12 6 -10 4 -10 -7 0 -7 6 -34 12 -60 12 -53 0 -66 -16 -53 -64 3 -15 2
-26 -4 -26 -5 0 -18 -12 -27 -27 l-17 -26 38 6 c34 5 37 4 22 -7 -22 -16 -24
-46 -3 -46 8 0 15 7 15 15 0 8 4 15 9 15 4 0 6 -11 3 -25 -2 -14 -9 -25 -14
-25 -5 0 -6 -6 -2 -12 5 -9 2 -8 -9 1 -10 8 -20 11 -24 7 -3 -3 -2 -6 4 -6 6
0 14 -7 17 -16 5 -13 4 -14 -7 -5 -8 6 -26 12 -40 13 -14 1 -24 5 -21 9 2 4
-7 14 -20 23 -22 14 -24 14 -21 -2 1 -9 8 -16 14 -14 6 1 11 -5 11 -13 0 -8
-6 -14 -12 -13 -7 2 -12 -5 -12 -14 1 -10 -4 -14 -12 -11 -8 3 -17 -2 -20 -11
-3 -9 -13 -16 -21 -16 -11 0 -8 8 11 26 28 29 30 33 18 50 -13 21 -49 25 -66
9 -12 -13 -16 -13 -16 -3 0 8 5 19 11 25 10 10 -13 34 -67 71 -17 11 -16 11 4
2 12 -6 26 -9 31 -6 5 3 14 -1 21 -9 7 -8 16 -12 21 -9 5 3 9 0 9 -6 0 -7 7
-10 15 -6 8 3 15 1 15 -5 0 -6 4 -8 9 -5 13 9 8 32 -14 56 -10 11 -14 20 -9
20 5 0 15 -9 22 -21 l13 -20 34 21 c19 12 35 18 35 14 0 -4 5 -3 12 4 8 8 8
15 -3 28 -11 14 -11 16 0 10 8 -5 17 -3 22 5 24 39 22 39 -376 39 l-385 0 0
-299z m540 209 c0 -5 -2 -10 -4 -10 -3 0 -8 5 -11 10 -3 6 -1 10 4 10 6 0 11
-4 11 -10z m-313 -302 c-2 -7 3 -18 12 -25 14 -11 14 -12 -1 -13 -31 0 -33 1
-30 16 2 10 -7 14 -30 15 -32 2 -32 2 7 9 22 4 42 8 43 9 2 0 2 -5 -1 -11z
m128 -5 c3 -10 1 -19 -4 -21 -18 -6 -12 -20 10 -27 11 -4 19 -9 16 -11 -2 -3
-17 0 -32 6 -21 8 -25 13 -16 24 6 7 9 21 5 30 -3 9 -2 16 4 16 5 0 13 -8 17
-17z m-135 -63 c12 -8 11 -10 -7 -10 -13 0 -23 5 -23 10 0 13 11 13 30 0z
m-144 -36 c18 -14 18 -14 -6 -3 -31 14 -36 19 -24 19 6 0 19 -7 30 -16z m61
-29 c-10 -20 -13 -22 -18 -7 -4 11 0 20 10 24 9 4 17 7 18 7 0 1 -4 -10 -10
-24z"/>
<path d="M996 2479 c-23 -43 -25 -53 -14 -67 12 -16 11 -16 -6 -2 -18 14 -19
13 -13 -17 4 -22 2 -33 -8 -37 -8 -3 -15 -12 -15 -20 0 -8 -8 -17 -17 -19 -10
-3 14 -5 52 -6 43 0 65 3 56 8 -9 6 -10 11 -2 15 6 4 11 22 11 39 0 18 4 27 8
21 18 -28 79 -17 68 11 -3 8 -1 17 4 20 6 4 10 1 10 -5 0 -6 4 -9 9 -6 5 3 8
-2 7 -11 -1 -19 19 -24 47 -11 11 6 17 5 17 -3 0 -7 3 -9 6 -6 4 4 2 12 -3 19
-6 7 -14 24 -17 38 l-7 25 15 -27 c11 -19 21 -25 36 -21 28 7 25 33 -4 33 -17
0 -26 7 -30 25 -4 14 -11 24 -17 22 -7 -1 -14 5 -16 13 -4 13 -3 13 6 0 9 -13
11 -13 11 3 0 13 -9 17 -40 17 -22 0 -40 -5 -40 -10 0 -7 -6 -7 -19 0 -43 22
-66 13 -95 -41z m92 -66 c-10 -2 -28 -2 -40 0 -13 2 -5 4 17 4 22 1 32 -1 23
-4z m-67 -38 c3 2 5 -5 6 -15 2 -26 -1 -25 -23 8 -13 19 -13 24 -2 15 8 -7 17
-11 19 -8z"/>
<path d="M1200 2521 c0 -17 14 -19 45 -5 l30 13 -37 1 c-21 0 -38 -4 -38 -9z"/>
<path d="M1282 2498 c-23 -16 -42 -31 -42 -34 0 -2 42 -4 94 -4 82 0 95 2 99
18 3 12 5 13 6 2 1 -13 25 -15 149 -16 87 -1 157 -6 172 -13 22 -10 19 -11
-21 -6 l-47 6 0 -34 0 -34 52 1 c48 1 51 3 54 29 3 25 7 27 33 23 21 -3 29 0
29 10 0 9 -5 12 -12 8 -10 -6 -10 -4 0 7 6 7 12 26 12 42 l0 28 -268 -2 -268
-2 -42 -29z"/>
<path d="M1870 2474 l0 -56 32 4 c25 2 33 -1 33 -13 0 -8 13 -27 29 -42 16
-15 24 -27 17 -27 -6 0 -11 -4 -11 -10 0 -6 29 -10 66 -10 51 0 70 4 81 18 14
16 14 16 9 0 -5 -16 3 -18 84 -18 73 0 90 3 90 15 0 8 4 15 10 15 5 0 6 -7 3
-17 -4 -11 -3 -14 5 -9 7 4 12 18 12 32 0 23 -2 24 -74 24 -50 0 -76 -4 -79
-12 -4 -10 -6 -10 -6 0 -1 6 -8 12 -16 12 -8 0 -15 -6 -15 -12 0 -10 -2 -10
-8 -2 -4 7 -18 14 -32 17 -21 4 -20 4 7 6 25 1 36 8 48 31 18 35 25 38 25 9 0
-11 -4 -18 -9 -15 -5 3 -11 -1 -15 -9 -5 -13 20 -15 178 -15 175 1 185 2 202
22 11 12 13 18 5 13 -11 -6 -13 -4 -8 10 11 28 -10 47 -36 32 -12 -7 -24 -14
-27 -17 -3 -3 -25 0 -50 6 -25 7 -36 13 -25 14 13 1 15 4 7 7 -8 3 -29 -9 -47
-27 -18 -17 -35 -27 -39 -22 -3 5 -16 9 -28 8 -13 -1 -31 6 -41 15 -19 18 -82
39 -116 39 -14 0 -21 6 -21 20 0 19 -7 20 -120 19 l-120 0 0 -55z m70 -21
c-10 -16 -11 -15 -6 7 3 14 6 32 7 40 1 8 4 5 6 -7 2 -12 -1 -30 -7 -40z m480
-17 c0 -2 -8 -10 -17 -17 -16 -13 -17 -12 -4 4 13 16 21 21 21 13z"/>
<path d="M2146 2515 c7 -18 45 -20 61 -4 8 8 14 5 22 -10 7 -12 8 -21 4 -22
-14 -1 62 -27 82 -28 25 -1 48 34 40 60 -5 14 -15 19 -40 19 -27 0 -34 -4 -40
-27 -4 -16 -10 -22 -12 -15 -3 6 -9 10 -14 6 -5 -3 -9 2 -9 11 0 9 5 13 10 10
6 -3 10 -1 10 4 0 7 -24 11 -60 11 -49 0 -58 -3 -54 -15z"/>
<path d="M2360 2523 c0 -5 4 -14 9 -22 7 -11 11 -9 20 8 10 18 9 21 -9 21 -11
0 -20 -3 -20 -7z"/>
<path d="M2404 2519 c-3 -6 -1 -16 5 -23 16 -19 50 -27 58 -14 4 7 1 8 -8 4
-8 -4 -6 -1 3 7 10 8 15 17 11 20 -3 4 3 7 14 7 13 0 29 -13 42 -35 l21 -35
20 20 c27 27 48 26 24 -1 -14 -16 -15 -23 -6 -26 6 -3 12 -20 12 -38 0 -37 13
-46 49 -33 14 5 30 7 38 4 7 -3 13 -1 13 3 0 5 14 14 31 20 41 14 46 14 31 -1
-17 -17 -15 -38 3 -38 23 0 18 -16 -10 -28 -39 -18 -53 -14 -26 7 30 23 17 31
-37 24 -35 -5 -40 -8 -32 -23 5 -10 6 -21 2 -25 -4 -3 -2 -6 3 -4 11 2 85 -28
85 -35 0 -3 -15 0 -33 5 -52 14 -85 9 -79 -14 2 -10 11 -16 18 -13 7 3 16 1
19 -4 4 -6 -1 -10 -9 -10 -8 0 -17 -8 -19 -17 -4 -14 -5 -13 -6 4 -1 25 -30
37 -77 30 -26 -3 -29 -7 -31 -45 -1 -23 0 -42 3 -42 14 0 44 22 40 29 -3 4 0
8 7 8 7 0 21 4 32 9 14 5 11 -1 -10 -19 l-30 -28 50 3 c37 2 59 -3 85 -20 32
-20 35 -20 42 -4 3 9 7 34 7 54 1 34 -1 37 -31 41 l-33 4 33 1 c30 2 37 10 33
40 -1 8 5 7 19 -5 18 -15 18 -19 5 -21 -31 -7 -11 -37 26 -40 32 -3 37 0 43
24 4 14 9 24 11 22 9 -9 -18 -84 -41 -115 -29 -38 -29 -40 -6 -46 11 -3 8 -5
-9 -6 -17 -1 -26 4 -26 14 0 8 4 15 8 15 3 0 14 12 24 26 16 24 16 28 1 42
-10 11 -16 12 -16 4 0 -7 -6 -12 -14 -12 -15 0 -30 -45 -21 -60 3 -5 1 -11 -4
-14 -5 -4 -12 -2 -16 4 -5 9 -50 5 -85 -7 -21 -7 15 -21 58 -22 18 -1 31 -4
29 -8 -11 -18 23 -30 79 -29 52 1 59 3 59 21 0 13 -6 19 -18 18 -17 -1 -16 1
4 23 27 29 33 30 20 5 -8 -14 -4 -24 17 -45 35 -32 40 -32 81 1 18 15 39 28
47 29 28 4 45 25 33 41 -7 7 -9 16 -5 20 3 3 6 1 6 -6 0 -8 8 -11 19 -8 15 4
18 1 13 -12 -3 -9 -14 -22 -24 -29 -23 -17 -23 -29 0 -35 12 -3 11 -5 -6 -6
-51 -2 -113 -24 -123 -43 -8 -15 -7 -31 6 -64 9 -24 13 -49 9 -55 -5 -9 1 -10
22 -6 27 5 27 4 9 -9 -17 -13 -17 -14 -1 -14 9 0 14 -4 11 -10 -3 -5 -1 -10 5
-10 16 0 30 43 16 52 -6 4 7 7 29 7 33 0 36 -2 19 -9 -25 -10 -33 -21 -39 -50
-4 -19 1 -20 76 -20 l79 0 0 50 c0 48 -1 50 -20 40 -11 -6 -20 -20 -20 -30 0
-19 -1 -19 -18 -2 -18 16 -17 17 12 31 17 7 34 18 38 25 4 6 8 127 8 269 0
204 -3 257 -12 251 -10 -6 -10 -4 0 7 6 7 12 21 12 31 0 17 -14 18 -209 18
-205 0 -209 0 -204 -20 7 -26 50 -60 74 -60 36 0 19 -18 -21 -22 -36 -3 -39
-2 -34 18 3 12 1 25 -5 28 -7 5 -11 -4 -11 -23 0 -17 -4 -31 -9 -31 -6 0 -8
20 -6 44 5 48 -7 66 -41 64 -24 -2 -27 -24 -8 -53 15 -22 18 -45 6 -45 -4 0
-14 16 -21 35 l-12 36 -42 -33 -42 -32 28 31 c16 17 29 35 29 40 0 4 2 10 5
13 4 3 3 -1 -2 -9 -5 -10 -4 -12 4 -7 6 4 9 12 5 17 -7 12 -262 10 -270 -2z
m524 -40 c-6 -4 -8 -11 -4 -17 3 -6 2 -13 -4 -17 -11 -7 -14 24 -4 50 5 13 9
14 15 4 4 -8 3 -16 -3 -20z m110 -81 l27 4 -23 -17 c-20 -15 -23 -23 -17 -54
4 -20 3 -32 -2 -28 -8 9 -10 14 -12 47 0 11 -8 20 -16 20 -8 0 -15 2 -15 5 0
11 25 33 28 25 1 -4 15 -5 30 -2z m-119 -63 c-17 -25 -31 -45 -32 -45 -1 0 -2
13 -2 29 0 16 4 27 8 24 5 -3 15 4 23 16 8 12 19 21 24 21 5 0 -4 -20 -21 -45z
m-86 28 c-7 -2 -21 -2 -30 0 -10 3 -4 5 12 5 17 0 24 -2 18 -5z m171 -162 c-2
-2 -10 1 -18 8 -11 9 -15 9 -19 -1 -4 -9 -6 -8 -6 3 -1 8 4 20 11 27 9 9 14 6
23 -11 6 -12 10 -24 9 -26z m153 -347 c-3 -3 -12 -4 -19 -1 -8 3 -5 6 6 6 11
1 17 -2 13 -5z"/>
<path d="M2489 2483 c-13 -16 -12 -17 4 -4 9 7 17 15 17 17 0 8 -8 3 -21 -13z"/>
<path d="M1270 2440 c0 -6 10 -9 23 -7 12 2 33 1 47 -4 24 -7 23 -7 -7 -8 -17
-1 -35 -6 -38 -11 -4 -6 -11 -8 -16 -5 -5 4 -9 -1 -9 -9 0 -12 5 -14 24 -6 13
4 27 5 32 0 5 -4 24 -6 42 -3 27 5 32 9 32 33 0 27 -1 28 -65 29 -38 0 -65 -3
-65 -9z"/>
<path d="M1410 2420 c0 -24 4 -30 21 -30 15 0 19 4 15 16 -3 9 -6 22 -6 30 0
8 -7 14 -15 14 -10 0 -15 -10 -15 -30z"/>
<path d="M1454 2434 c3 -9 6 -24 6 -35 0 -29 18 -23 23 9 l4 27 2 -27 c2 -43
31 -36 31 7 0 34 -2 35 -36 35 -29 0 -35 -3 -30 -16z"/>
<path d="M1550 2417 l0 -33 59 -2 c58 -2 59 -2 63 28 3 16 2 32 0 35 -3 3 -32
5 -64 5 l-58 0 0 -33z"/>
<path d="M696 2415 c-22 -17 -17 -29 7 -19 16 6 32 34 19 34 -4 0 -16 -7 -26
-15z"/>
<path d="M1812 2405 c0 -16 2 -22 5 -12 2 9 2 23 0 30 -3 6 -5 -1 -5 -18z"/>
<path d="M1230 2400 c0 -5 7 -10 15 -10 8 0 15 5 15 10 0 6 -7 10 -15 10 -8 0
-15 -4 -15 -10z"/>
<path d="M1830 2400 c0 -5 7 -10 15 -10 8 0 15 5 15 10 0 6 -7 10 -15 10 -8 0
-15 -4 -15 -10z"/>
<path d="M1870 2365 c0 -26 5 -45 11 -45 7 0 10 14 7 35 -2 19 0 35 4 35 4 0
8 5 8 10 0 6 -7 10 -15 10 -11 0 -15 -12 -15 -45z"/>
<path d="M915 2377 c-10 -15 -16 -30 -13 -32 8 -9 40 33 36 47 -3 8 -11 2 -23
-15z"/>
<path d="M748 2355 c2 -14 8 -25 13 -25 14 0 11 26 -5 39 -11 9 -12 6 -8 -14z"/>
<path d="M2340 2370 c0 -5 6 -11 13 -14 10 -5 10 -7 0 -12 -29 -13 -9 -23 50
-27 l62 -3 -70 -2 c-57 -2 -74 -6 -88 -22 -9 -11 -17 -22 -17 -24 0 -2 18 -2
40 -1 28 2 40 -2 40 -11 0 -19 10 -18 25 2 6 9 31 18 56 21 56 7 82 25 48 34
-24 7 -24 7 -1 8 14 1 22 8 23 19 0 14 2 14 9 -3 5 -13 3 -26 -8 -37 -14 -17
-13 -18 7 -18 17 0 21 5 19 29 -1 16 3 35 10 43 10 12 7 14 -18 10 -17 -2 -30
0 -30 6 0 6 -34 10 -85 10 -47 0 -85 -3 -85 -8z"/>
<path d="M1050 2340 c0 -27 3 -30 33 -29 27 0 29 2 12 9 -19 8 -19 9 3 9 15 1
22 7 22 21 0 25 -20 27 -20 3 -1 -17 -1 -17 -14 0 -20 26 -36 21 -36 -13z"/>
<path d="M1175 2348 c10 -31 25 -47 25 -26 0 24 -11 48 -22 48 -5 0 -6 -10 -3
-22z"/>
<path d="M1210 2340 c0 -16 5 -30 10 -30 6 0 10 14 10 30 0 17 -4 30 -10 30
-5 0 -10 -13 -10 -30z"/>
<path d="M1420 2360 c0 -5 5 -10 10 -10 6 0 10 5 10 10 0 6 -4 10 -10 10 -5 0
-10 -4 -10 -10z"/>
<path d="M1840 2351 c0 -11 5 -23 10 -26 6 -3 10 3 10 14 0 11 -4 23 -10 26
-5 3 -10 -3 -10 -14z"/>
<path d="M1920 2362 c0 -6 -3 -17 -6 -26 -3 -9 -1 -16 4 -16 6 0 13 8 15 18 4
16 5 16 6 0 0 -10 6 -18 12 -18 18 0 5 45 -13 48 -10 2 -18 -1 -18 -6z"/>
<path d="M1271 2344 c0 -11 3 -14 6 -6 3 7 2 16 -1 19 -3 4 -6 -2 -5 -13z"/>
<path d="M1326 2352 c-3 -5 13 -9 35 -10 22 -2 39 2 39 8 0 12 -66 14 -74 2z"/>
<path d="M1755 2351 c-17 -7 -17 -8 8 -13 19 -4 27 -1 27 8 0 15 -6 16 -35 5z"/>
<path d="M2567 2344 c-4 -4 -7 -22 -7 -41 0 -30 3 -33 29 -33 23 0 28 4 25 18
-7 26 -39 64 -47 56z"/>
<path d="M2622 2342 c-16 -10 -5 -43 12 -36 12 5 20 44 8 44 -4 0 -13 -4 -20
-8z"/>
<path d="M2005 2300 c-11 -18 5 -30 40 -30 24 0 38 6 45 20 10 19 8 20 -34 20
-25 0 -48 -4 -51 -10z"/>
<path d="M2100 2290 c-10 -18 -8 -20 30 -20 33 0 40 3 40 20 0 16 -7 20 -30
20 -19 0 -33 -7 -40 -20z"/>
<path d="M2180 2289 c0 -18 5 -20 48 -17 90 7 101 38 12 38 -54 0 -60 -2 -60
-21z"/>
<path d="M894 2285 c-3 -8 -3 -18 0 -24 8 -12 66 -11 66 1 0 5 8 5 18 0 23
-13 42 -4 42 19 0 16 -7 19 -41 19 -29 0 -38 -3 -33 -12 6 -10 4 -10 -7 0 -18
16 -38 15 -45 -3z"/>
<path d="M1072 2288 c5 -13 38 -20 38 -8 0 4 -7 11 -16 14 -22 9 -26 8 -22 -6z"/>
<path d="M1975 2291 c-3 -5 -1 -12 5 -16 5 -3 10 1 10 9 0 18 -6 21 -15 7z"/>
<path d="M1031 2274 c0 -11 3 -14 6 -6 3 7 2 16 -1 19 -3 4 -6 -2 -5 -13z"/>
<path d="M1050 2281 c0 -5 5 -13 10 -16 6 -3 10 -2 10 4 0 5 -4 13 -10 16 -5
3 -10 2 -10 -4z"/>
<path d="M2404 2251 c-11 -11 -2 -18 23 -17 14 1 28 6 30 12 4 11 -43 15 -53
5z"/>
<path d="M2460 2233 c-20 -23 -20 -23 1 -23 11 0 17 5 14 10 -3 6 -2 10 4 10
5 0 13 -4 16 -10 11 -18 25 -10 25 14 0 32 -32 31 -60 -1z"/>
<path d="M2090 2240 c10 -6 11 -10 3 -10 -7 0 -13 -4 -13 -10 0 -5 9 -10 21
-10 15 0 19 5 15 15 -4 10 1 15 14 15 11 0 20 -5 20 -11 0 -5 -4 -7 -10 -4 -5
3 -10 1 -10 -5 0 -18 34 -7 38 13 3 14 -4 17 -45 17 -35 0 -44 -3 -33 -10z"/>
<path d="M2185 2240 c3 -5 13 -10 21 -10 8 0 14 5 14 10 0 6 -9 10 -21 10 -11
0 -17 -4 -14 -10z"/>
<path d="M2240 2239 c0 -5 5 -7 10 -4 6 3 10 8 10 11 0 2 -4 4 -10 4 -5 0 -10
-5 -10 -11z"/>
<path d="M2270 2242 c0 -5 7 -9 15 -9 8 0 15 4 15 9 0 4 -7 8 -15 8 -8 0 -15
-4 -15 -8z"/>
<path d="M2330 2240 c0 -5 4 -10 9 -10 6 0 13 5 16 10 3 6 -1 10 -9 10 -9 0
-16 -4 -16 -10z"/>
<path d="M743 2233 c9 -2 25 -2 35 0 9 3 1 5 -18 5 -19 0 -27 -2 -17 -5z"/>
<path d="M808 2233 c6 -2 18 -2 25 0 6 3 1 5 -13 5 -14 0 -19 -2 -12 -5z"/>
<path d="M902 2220 c7 -11 17 -20 22 -20 5 0 1 9 -9 20 -10 11 -20 20 -22 20
-2 0 2 -9 9 -20z"/>
<path d="M935 2220 c10 -11 20 -20 22 -20 2 0 -1 9 -7 20 -6 11 -16 20 -22 20
-6 0 -3 -9 7 -20z"/>
<path d="M1490 2224 c-112 -20 -252 -61 -261 -76 -5 -7 -9 -26 -9 -43 0 -43
-9 -52 -60 -60 -69 -10 -76 -13 -88 -40 l-12 -25 -229 0 -230 0 -10 -52 c-6
-29 -24 -129 -41 -223 -17 -93 -35 -180 -40 -193 l-10 -23 285 3 c264 3 285 2
285 -14 0 -25 33 -39 95 -41 l55 -2 2 -35 c0 -19 0 -43 0 -53 -2 -21 51 -46
141 -67 64 -15 72 -24 24 -27 -20 -2 -27 1 -19 6 20 12 -20 21 -101 21 -42 0
-66 4 -62 10 6 10 -33 23 -56 19 -8 -2 -27 5 -42 15 -15 10 -30 16 -33 13 -3
-3 4 -8 15 -12 11 -3 21 -16 23 -27 2 -12 9 -23 17 -26 8 -3 11 0 7 7 -8 12
20 5 40 -10 6 -5 15 -5 20 -1 4 4 2 -2 -6 -12 -13 -17 -15 -17 -18 -3 -5 24
-29 21 -38 -5 l-6 -21 -14 24 c-7 13 -13 32 -14 42 0 9 -4 17 -9 17 -5 0 -16
3 -24 6 -11 4 -17 -2 -20 -18 -3 -19 -5 -17 -6 7 -1 29 -4 31 -38 31 -44 0
-72 6 -92 18 -11 7 -12 6 -6 -5 7 -11 6 -12 -6 -2 -16 13 -152 14 -164 1 -4
-4 -13 -4 -21 -1 -8 3 -26 -3 -40 -12 -21 -14 -24 -19 -13 -26 11 -7 10 -9 -5
-9 -11 0 -31 -11 -45 -24 l-26 -25 -1 30 c-1 17 2 26 6 19 7 -11 40 -4 40 9 0
4 -6 13 -12 21 -11 12 -10 12 3 2 13 -10 19 -8 34 8 20 22 23 20 -53 25 -42 3
-44 2 -37 -22 4 -16 2 -22 -5 -18 -5 3 -10 15 -10 25 0 20 -17 36 -27 26 -3
-3 0 -14 8 -23 13 -16 12 -17 -3 -4 -15 11 -19 11 -24 -2 -3 -9 -13 -18 -21
-21 -13 -5 -13 -3 2 20 9 14 15 27 13 28 -39 27 -57 46 -48 51 16 10 12 50 -7
67 -44 39 -98 51 -128 28 -34 -24 -42 -19 -38 24 l5 42 -81 0 c-45 0 -81 -4
-81 -8 0 -5 12 -9 28 -9 23 -2 24 -2 4 -6 -12 -2 -20 -8 -17 -13 3 -4 -6 -7
-19 -6 -13 0 -22 4 -19 9 2 4 -19 7 -46 7 l-51 0 0 -780 0 -780 1595 0 1595 0
0 745 0 745 -55 -1 c-31 -1 -59 1 -62 5 -3 3 21 6 55 6 48 0 62 3 62 15 0 12
-15 15 -71 15 -48 0 -68 -3 -63 -11 5 -8 1 -8 -14 0 -11 6 -67 11 -124 11 -93
-1 -101 -2 -84 -15 18 -14 15 -20 -8 -16 -4 1 -6 -12 -4 -29 5 -34 3 -36 -18
-16 -10 11 -11 15 -1 19 22 8 -2 20 -27 13 -18 -4 -24 -11 -19 -23 5 -13 2
-15 -20 -9 -17 4 -27 2 -27 -4 0 -6 6 -8 13 -4 9 6 9 5 0 -7 -11 -13 -8 -26
15 -72 15 -31 30 -57 34 -57 3 0 21 12 39 27 25 21 30 23 21 8 -19 -37 -49
-55 -123 -76 -40 -11 -78 -24 -84 -29 -7 -6 -21 0 -38 15 -33 32 -41 31 -33 0
4 -14 2 -25 -4 -25 -5 0 -10 13 -10 28 0 20 -7 32 -22 40 -15 7 -18 11 -8 12
11 1 9 4 -5 11 -16 7 -14 9 13 6 18 -2 35 0 38 4 2 4 -78 6 -178 5 -136 -3
-196 -7 -233 -20 -27 -8 -70 -16 -95 -17 -37 -1 -41 -2 -20 -9 22 -7 20 -8
-15 -9 -58 -2 -87 -11 -76 -25 6 -8 0 -12 -20 -13 -21 -2 -29 2 -29 15 -1 16
-2 16 -14 -1 -10 -13 -15 -14 -18 -5 -3 7 -21 12 -49 11 -44 -2 -44 -2 26 22
39 13 78 24 88 24 27 1 54 36 62 79 6 38 9 41 48 47 47 8 77 22 92 42 8 10 61
13 225 15 l215 3 27 145 c60 330 65 361 55 351 -7 -7 -98 -11 -270 -11 -236 0
-259 1 -253 16 7 19 -21 57 -36 48 -5 -3 -30 -3 -56 1 l-47 6 -2 44 c-2 55
-19 88 -41 81 -10 -3 -50 3 -89 14 -80 22 -234 50 -267 49 -11 0 -55 -7 -96
-15z m227 -54 c125 -17 182 -37 193 -66 6 -14 10 -36 10 -49 0 -24 2 -25 93
-41 77 -13 45 -24 -70 -24 -96 0 -128 4 -173 21 -37 15 -87 23 -153 27 -87 4
-107 2 -180 -22 -73 -24 -95 -26 -197 -24 -119 3 -125 9 -27 28 55 11 57 13
57 43 0 57 18 67 165 97 106 22 175 24 282 10z m-837 -260 c-9 -17 -8 -20 13
-20 l23 0 -25 -135 c-24 -125 -27 -135 -48 -135 -15 0 -23 -7 -25 -22 -3 -22
-7 -23 -120 -26 -65 -1 -118 -1 -118 1 0 5 59 307 65 335 5 21 9 22 126 22
117 0 119 -1 109 -20z m206 3 c-3 -10 -14 -67 -26 -128 -11 -60 -25 -134 -31
-162 l-10 -53 -55 0 c-30 0 -54 4 -54 8 0 9 55 287 65 330 5 19 12 22 61 22
48 0 55 -2 50 -17z m330 0 c-3 -10 -8 -35 -12 -55 -6 -35 -9 -38 -41 -38 -30
0 -35 3 -30 20 5 18 0 20 -43 20 l-48 0 -17 -76 c-9 -41 -15 -78 -12 -80 3 -3
8 11 11 31 l7 35 80 0 c72 0 80 -2 75 -17 -5 -15 -36 -172 -36 -180 0 -2 -18
-3 -40 -3 -38 0 -39 1 -30 25 5 14 7 25 5 25 -3 0 -10 -11 -15 -25 -9 -24 -14
-25 -83 -25 l-74 0 5 26 c4 23 2 25 -18 19 -20 -6 -22 -4 -17 16 3 13 16 77
28 142 22 109 25 117 46 117 16 0 23 6 23 20 0 19 7 20 121 20 110 0 120 -2
115 -17z m165 -5 c-4 -13 -21 -91 -36 -175 l-28 -151 -56 -4 c-31 -2 -56 -4
-57 -3 0 0 15 80 34 178 l34 177 59 0 c56 0 58 -1 50 -22z m163 -5 c-3 -16 -7
-34 -10 -40 -2 -9 11 -13 45 -13 l49 0 7 40 7 40 59 0 c50 0 57 -2 52 -17 -3
-9 -20 -88 -37 -177 l-31 -161 -58 -3 c-52 -3 -58 -1 -54 15 3 10 8 41 12 68
4 28 11 58 16 68 6 11 6 17 -1 17 -5 0 -13 -18 -16 -40 -6 -39 -7 -40 -49 -40
-24 0 -50 -3 -58 -6 -13 -4 -14 1 -7 29 4 19 11 40 15 47 5 8 3 11 -6 8 -9 -3
-19 -35 -28 -86 l-14 -82 -34 0 c-21 0 -33 5 -33 13 0 15 58 314 65 335 3 8
24 12 60 12 55 0 55 0 49 -27z m496 8 c-14 -27 -13 -29 14 -24 l23 5 -26 -134
c-24 -118 -29 -133 -48 -136 -13 -2 -24 -13 -27 -28 -6 -23 -9 -24 -102 -24
l-96 0 6 26 c6 23 4 26 -13 21 -26 -6 -26 -5 -1 130 27 140 28 143 50 143 10
0 22 9 25 20 6 18 15 20 106 20 95 0 99 -1 89 -19z m204 -8 c-3 -16 -8 -35
-10 -44 -3 -12 2 -15 25 -11 25 3 30 9 35 43 6 38 8 39 46 39 37 0 39 -1 30
-22 -5 -13 -21 -86 -35 -163 -35 -191 -27 -175 -91 -175 -30 0 -54 3 -54 8 0
4 4 24 9 45 9 37 8 39 -14 33 -22 -6 -23 -4 -14 35 6 23 7 44 5 47 -8 7 -13
-13 -26 -95 l-12 -73 -34 0 c-22 0 -34 5 -34 13 0 15 58 314 65 335 3 8 24 12
60 12 55 0 55 0 49 -27z m113 -349 c-3 -3 -12 -4 -19 -1 -8 3 -5 6 6 6 11 1
17 -2 13 -5z m-1142 -75 c51 -20 77 -23 180 -23 103 0 128 3 175 23 46 19 75
23 172 24 146 2 161 -12 32 -28 -52 -7 -52 -7 -57 -48 -3 -25 -14 -49 -26 -58
-59 -48 -371 -60 -516 -20 -87 23 -105 38 -105 87 0 32 -1 33 -55 39 -30 4
-61 12 -70 19 -12 8 11 11 98 10 93 -1 123 -5 172 -25z m-1197 -5 c2 -1 -5
-15 -15 -32 l-18 -30 0 43 c0 37 2 42 15 32 8 -6 16 -12 18 -13z m85 -29 c-3
-9 -8 -14 -10 -11 -3 3 -2 9 2 15 9 16 15 13 8 -4z m2548 -68 c-10 -9 -11 -8
-5 6 3 10 9 15 12 12 3 -3 0 -11 -7 -18z m-2145 -59 c-1 -7 -5 -19 -9 -25 -5
-7 -5 -17 -2 -23 3 -5 1 -10 -4 -10 -14 0 -14 26 -1 51 12 22 19 25 16 7z m84
-3 c-7 -9 -15 -13 -19 -10 -3 3 1 10 9 15 21 14 24 12 10 -5z m48 -10 c-3 -3
-9 2 -12 12 -6 14 -5 15 5 6 7 -7 10 -15 7 -18z m1563 -32 c14 -25 15 -31 4
-27 -8 3 -17 14 -20 25 -9 27 -20 24 -49 -13 -29 -37 -35 -31 -9 10 30 49 47
65 52 50 2 -7 12 -27 22 -45z m-1439 17 c-2 -16 5 -31 20 -43 l23 -18 -23 11
c-12 6 -28 8 -34 4 -7 -5 -9 -2 -6 7 19 51 19 59 0 59 -10 0 -31 -17 -45 -37
-15 -21 -27 -33 -27 -26 0 6 12 26 26 43 33 38 71 39 66 0z m1306 -12 c7 -7
12 -21 11 -32 0 -20 -1 -20 -9 2 -12 29 -38 28 -80 -3 -42 -31 -46 -31 -23 -1
14 19 43 34 84 45 3 0 10 -4 17 -11z m-1443 -8 c3 -5 -1 -10 -10 -10 -9 0 -13
5 -10 10 3 6 8 10 10 10 2 0 7 -4 10 -10z m930 -19 c-8 -14 -45 -14 -45 0 0 6
9 8 20 4 13 -4 20 -2 20 6 0 7 3 10 6 6 3 -3 3 -10 -1 -16z m310 0 c14 -6 6
-8 -26 -7 -26 0 -45 4 -42 9 5 9 42 8 68 -2z m440 -1 c-10 -16 -62 -40 -69
-32 -4 4 10 14 31 24 47 20 46 20 38 8z m-1731 -122 c-1 -21 -9 -49 -18 -63
-15 -23 -23 -25 -85 -25 l-68 0 21 65 20 66 66 -3 65 -3 -1 -37z m73 -23 c-20
-60 -23 -65 -50 -65 -24 0 -28 3 -22 18 4 9 12 38 18 65 11 44 14 47 43 47
l32 0 -21 -65z m173 50 c0 -11 -12 -15 -45 -15 -25 0 -45 -4 -45 -10 0 -5 20
-10 44 -10 l43 0 -10 -40 -11 -40 -67 0 c-45 0 -69 4 -72 13 -6 18 20 99 35
108 7 5 39 9 71 9 44 0 57 -3 57 -15z m85 -2 c-4 -10 -12 -39 -18 -65 -11 -45
-14 -48 -44 -48 -30 0 -32 2 -23 24 4 13 14 42 20 65 10 37 14 41 41 41 26 0
30 -3 24 -17z m95 -13 c0 -16 4 -30 8 -30 4 0 16 14 25 30 15 24 25 30 53 30
19 0 34 -2 34 -5 0 -3 -7 -32 -17 -65 -15 -56 -18 -60 -45 -60 -26 0 -28 3
-22 23 4 12 9 29 11 37 3 8 -7 2 -21 -15 -14 -16 -26 -34 -26 -38 0 -5 -10 -7
-22 -5 -18 2 -24 11 -28 38 -5 37 -13 33 -24 -12 -3 -16 -13 -28 -20 -28 -13
0 -8 32 19 118 3 6 20 12 40 12 32 0 35 -2 35 -30z m272 -9 c-1 -19 -8 -46
-15 -60 -11 -24 -18 -26 -80 -29 l-67 -3 0 30 c0 36 17 83 33 93 7 5 39 7 72
6 l60 -3 -3 -34z m111 4 c17 -59 20 -60 31 -15 8 30 18 46 30 48 10 2 16 0 13
-5 -2 -4 -12 -34 -21 -66 l-17 -58 -37 3 c-33 3 -37 6 -45 41 -12 48 -24 47
-32 -3 -5 -29 -12 -40 -24 -40 -16 0 -16 4 3 65 20 66 20 66 55 63 29 -2 36
-8 44 -33z m199 3 l3 -33 18 33 c14 25 24 32 47 32 25 0 29 -4 32 -32 l3 -33
15 33 c8 18 22 32 32 32 14 0 10 -12 -20 -65 -31 -55 -41 -65 -64 -65 -26 0
-28 3 -28 38 l-1 37 -20 -37 c-16 -31 -25 -38 -49 -38 l-30 0 0 65 0 65 29 0
c26 0 30 -4 33 -32z m304 17 c9 -22 -5 -82 -22 -100 -18 -17 -129 -22 -139 -5
-9 15 15 94 33 108 23 18 121 16 128 -3z m167 -19 c-1 -16 -8 -33 -14 -37 -7
-4 -10 -19 -7 -33 5 -25 3 -27 -26 -24 -23 2 -32 8 -34 26 -4 30 -20 28 -28
-3 -5 -20 -13 -25 -36 -25 -25 0 -29 3 -23 18 3 9 11 39 18 65 l11 48 70 -3
71 -3 -2 -29z m82 -7 c-23 -63 -20 -73 16 -65 22 4 29 2 27 -7 -3 -7 -29 -13
-68 -15 -57 -3 -62 -1 -55 15 4 10 12 39 18 66 11 44 14 47 44 47 l32 0 -14
-41z m217 2 c-1 -19 -8 -46 -15 -60 -11 -24 -18 -26 -84 -29 l-71 -3 15 53 c8
29 16 59 19 66 3 9 23 12 71 10 l68 -3 -3 -34z m-1492 -905 c28 -35 -11 -93
-47 -70 -36 22 -23 84 17 84 10 0 23 -7 30 -14z m93 -23 c7 -39 -3 -53 -35
-53 -15 0 -18 9 -18 45 0 41 2 45 24 45 19 0 24 -6 29 -37z m73 2 c16 -39 19
-69 3 -42 -5 9 -16 17 -24 17 -8 0 -19 -8 -24 -17 -6 -10 -11 -15 -11 -11 0
11 32 88 37 88 2 0 11 -16 19 -35z m59 3 l20 -33 6 35 c6 33 6 32 8 -12 0 -27
-1 -48 -4 -48 -3 0 -14 15 -25 33 l-20 32 0 -27 c0 -16 -4 -28 -10 -28 -5 0
-10 18 -10 40 0 48 9 50 35 8z m93 20 c27 -27 7 -78 -30 -78 -15 0 -18 8 -18
45 0 37 3 45 18 45 10 0 23 -5 30 -12z m86 -58 c6 -23 6 -23 -7 -7 -16 19 -47
23 -47 5 0 -6 -3 -9 -6 -6 -3 3 2 23 11 44 l16 39 13 -25 c8 -14 17 -36 20
-50z m23 8 c-2 -13 -4 -3 -4 22 0 25 2 35 4 23 2 -13 2 -33 0 -45z m121 15
c-1 -44 -2 -45 -5 -10 -2 20 -9 37 -14 37 -6 0 -7 5 -4 10 14 23 25 7 23 -37z
m80 4 c3 -39 -18 -61 -40 -39 -7 7 -5 10 7 9 10 -1 20 4 22 11 3 6 -2 12 -11
12 -19 0 -29 17 -22 36 12 30 41 11 44 -29z m70 0 c3 -39 -18 -61 -40 -39 -7
7 -5 10 7 9 10 -1 20 4 22 11 3 6 -2 12 -11 12 -19 0 -29 17 -22 36 12 30 41
11 44 -29z m72 36 c0 -5 -7 -26 -15 -48 -11 -32 -14 -35 -14 -15 -1 14 4 32 9
40 7 11 4 17 -13 22 -20 5 -19 6 6 7 15 1 27 -2 27 -6z m137 -9 c3 -8 -4 -25
-17 -39 l-22 -23 24 -5 c21 -4 20 -4 -4 -6 -34 -1 -37 21 -7 43 12 8 18 19 14
26 -5 8 -11 7 -23 -2 -15 -12 -16 -11 -3 5 17 21 30 22 38 1z m78 -29 c0 -33
-3 -40 -20 -40 -15 0 -21 8 -23 28 -5 39 5 59 25 55 14 -2 18 -13 18 -43z m70
0 c0 -33 -3 -40 -20 -40 -15 0 -21 8 -23 28 -5 39 5 59 25 55 14 -2 18 -13 18
-43z m70 0 c0 -33 -3 -40 -20 -40 -15 0 -21 8 -23 28 -5 39 5 59 25 55 14 -2
18 -13 18 -43z m-298 -1 c-3 -3 -12 -4 -19 -1 -8 3 -5 6 6 6 11 1 17 -2 13 -5z"/>
<path d="M1513 2111 c0 -11 5 -17 9 -15 5 3 6 9 3 14 -3 5 3 11 12 13 14 4 13
5 -4 6 -16 1 -21 -4 -20 -18z"/>
<path d="M1598 2105 c-3 -14 -1 -25 3 -25 5 0 9 11 9 25 0 14 -2 25 -4 25 -2
0 -6 -11 -8 -25z"/>
<path d="M1550 2097 c0 -8 -10 -18 -22 -20 l-23 -4 23 -2 c22 -1 41 23 28 36
-3 4 -6 -1 -6 -10z"/>
<path d="M1647 2090 c-3 -11 -1 -20 4 -20 5 0 9 9 9 20 0 11 -2 20 -4 20 -2 0
-6 -9 -9 -20z"/>
<path d="M1380 2089 c0 -5 5 -7 10 -4 6 3 10 8 10 11 0 2 -4 4 -10 4 -5 0 -10
-5 -10 -11z"/>
<path d="M1786 2085 c-9 -26 -7 -32 5 -12 6 10 9 21 6 23 -2 3 -7 -2 -11 -11z"/>
<path d="M1466 2075 c-3 -8 -1 -15 4 -15 6 0 10 7 10 15 0 8 -2 15 -4 15 -2 0
-6 -7 -10 -15z"/>
<path d="M1685 2080 c-3 -5 -2 -10 4 -10 5 0 13 5 16 10 3 6 2 10 -4 10 -5 0
-13 -4 -16 -10z"/>
<path d="M1410 2055 c-14 -8 -20 -14 -14 -15 5 0 19 7 30 15 24 18 16 19 -16
0z"/>
<path d="M724 1750 l-20 -110 22 0 c13 0 25 4 28 9 5 8 46 194 46 207 0 2 -12
4 -27 4 -28 0 -28 -2 -49 -110z"/>
<path d="M1218 1689 c-27 -16 -23 -49 6 -49 18 0 27 8 35 30 8 26 8 30 -7 30
-9 0 -25 -5 -34 -11z"/>
<path d="M2096 1823 c-3 -21 -12 -71 -20 -111 l-14 -73 27 3 c24 3 27 9 42 78
32 153 32 140 0 140 -25 0 -29 -4 -35 -37z"/>
<path d="M2465 1810 c-4 -17 -5 -34 -2 -36 3 -3 8 9 12 26 4 17 5 34 2 36 -3
3 -8 -9 -12 -26z"/>
<path d="M1338 1453 c5 -21 7 -23 10 -9 2 10 0 22 -6 28 -6 6 -7 0 -4 -19z"/>
<path d="M1847 1453 c-3 -5 5 -8 18 -8 13 0 21 3 18 8 -2 4 -10 7 -18 7 -8 0
-16 -3 -18 -7z"/>
<path d="M1377 1428 c-9 -31 -2 -33 11 -3 6 14 8 25 3 25 -5 0 -11 -10 -14
-22z"/>
<path d="M1771 1441 c-10 -7 -7 -9 12 -8 15 1 27 5 27 10 0 10 -22 9 -39 -2z"/>
<path d="M1421 1436 c2 -2 15 -9 29 -15 24 -11 24 -11 6 3 -16 13 -49 24 -35
12z"/>
<path d="M1700 1420 c-18 -12 -2 -12 25 0 13 6 15 9 5 9 -8 0 -22 -4 -30 -9z"/>
<path d="M1503 1396 c7 -14 13 -23 15 -21 7 6 -9 45 -18 45 -4 0 -3 -11 3 -24z"/>
<path d="M1410 1395 c0 -8 4 -15 10 -15 5 0 7 7 4 15 -4 8 -8 15 -10 15 -2 0
-4 -7 -4 -15z"/>
<path d="M1573 1403 c9 -2 23 -2 30 0 6 3 -1 5 -18 5 -16 0 -22 -2 -12 -5z"/>
<path d="M1718 1393 c7 -3 16 -2 19 1 4 3 -2 6 -13 5 -11 0 -14 -3 -6 -6z"/>
<path d="M1531 1374 c0 -11 3 -14 6 -6 3 7 2 16 -1 19 -3 4 -6 -2 -5 -13z"/>
<path d="M1578 1383 c6 -2 18 -2 25 0 6 3 1 5 -13 5 -14 0 -19 -2 -12 -5z"/>
<path d="M1568 1353 c7 -3 16 -2 19 1 4 3 -2 6 -13 5 -11 0 -14 -3 -6 -6z"/>
<path d="M682 1108 c-10 -38 -7 -49 12 -42 13 5 26 34 26 62 0 26 -30 10 -38
-20z"/>
<path d="M915 1090 c-9 -15 4 -30 20 -23 8 3 15 9 15 13 0 12 -29 20 -35 10z"/>
<path d="M1372 1108 c-11 -39 1 -59 22 -38 7 8 16 27 20 43 5 22 3 27 -14 27
-13 0 -22 -10 -28 -32z"/>
<path d="M1997 1133 c-12 -22 -16 -63 -6 -69 15 -9 28 6 38 44 8 28 7 32 -9
32 -10 0 -21 -3 -23 -7z"/>
<path d="M2160 1130 c0 -5 9 -10 20 -10 11 0 20 5 20 10 0 6 -9 10 -20 10 -11
0 -20 -4 -20 -10z"/>
<path d="M2467 1133 c-11 -20 -16 -62 -8 -67 12 -8 27 13 35 47 5 20 3 27 -8
27 -8 0 -17 -3 -19 -7z"/>
<path d="M1004 216 c-11 -29 0 -51 26 -51 21 0 25 5 25 30 0 24 -5 31 -23 33
-13 2 -24 -3 -28 -12z m41 -6 c3 -6 -1 -7 -9 -4 -11 4 -16 0 -16 -11 0 -12 5
-15 18 -10 14 5 15 4 5 -6 -17 -17 -38 3 -30 25 7 18 23 21 32 6z"/>
<path d="M1110 215 c0 -8 7 -15 15 -15 8 0 15 7 15 15 0 8 -7 15 -15 15 -8 0
-15 -7 -15 -15z"/>
<path d="M1110 175 c0 -10 7 -15 18 -13 21 4 19 22 -2 26 -10 2 -16 -3 -16
-13z"/>
<path d="M1200 205 c0 -8 4 -15 10 -15 5 0 7 7 4 15 -4 8 -8 15 -10 15 -2 0
-4 -7 -4 -15z"/>
<path d="M1340 196 c0 -37 5 -42 28 -27 19 12 11 55 -10 59 -15 3 -18 -4 -18
-32z"/>
<path d="M1426 205 c-3 -8 -1 -15 4 -15 6 0 10 7 10 15 0 8 -2 15 -4 15 -2 0
-6 -7 -10 -15z"/>
<path d="M1656 221 c-4 -5 -2 -12 3 -15 5 -4 12 -2 15 3 4 5 2 12 -3 15 -5 4
-12 2 -15 -3z"/>
<path d="M1726 221 c-4 -5 -2 -12 3 -15 5 -4 12 -2 15 3 4 5 2 12 -3 15 -5 4
-12 2 -15 -3z"/>
<path d="M2014 217 c-7 -20 -2 -47 11 -50 14 -3 19 43 6 56 -7 7 -12 6 -17 -6z"/>
<path d="M2084 217 c-7 -20 -2 -47 11 -50 14 -3 19 43 6 56 -7 7 -12 6 -17 -6z"/>
<path d="M2154 217 c-7 -20 -2 -47 11 -50 14 -3 19 43 6 56 -7 7 -12 6 -17 -6z"/>
<path d="M990 2213 c0 -10 4 -14 8 -8 4 6 11 13 16 18 5 4 2 7 -7 7 -10 0 -17
-8 -17 -17z"/>
<path d="M617 2209 c7 -7 15 -10 18 -7 3 3 -2 9 -12 12 -14 6 -15 5 -6 -5z"/>
<path d="M730 2210 c0 -5 5 -10 11 -10 5 0 7 5 4 10 -3 6 -8 10 -11 10 -2 0
-4 -4 -4 -10z"/>
<path d="M765 2210 c3 -5 24 -10 46 -10 21 0 39 5 39 10 0 6 -21 10 -46 10
-27 0 -43 -4 -39 -10z"/>
<path d="M2188 2213 c7 -3 16 -2 19 1 4 3 -2 6 -13 5 -11 0 -14 -3 -6 -6z"/>
<path d="M2318 2213 c6 -2 18 -2 25 0 6 3 1 5 -13 5 -14 0 -19 -2 -12 -5z"/>
<path d="M2388 2213 c6 -2 18 -2 25 0 6 3 1 5 -13 5 -14 0 -19 -2 -12 -5z"/>
<path d="M550 2204 c0 -16 14 -29 35 -32 11 -2 18 -2 15 0 -3 2 -15 12 -27 22
-13 11 -23 15 -23 10z"/>
<path d="M2240 2185 c0 -8 5 -15 10 -15 6 0 10 7 10 15 0 8 -4 15 -10 15 -5 0
-10 -7 -10 -15z"/>
<path d="M2285 2190 c-3 -5 -1 -10 4 -10 6 0 11 5 11 10 0 6 -2 10 -4 10 -3 0
-8 -4 -11 -10z"/>
<path d="M2315 2189 c-4 -5 11 -9 34 -9 22 0 42 4 45 9 3 5 -12 9 -34 9 -22 0
-42 -3 -45 -9z"/>
<path d="M2415 2192 c-13 -13 -1 -18 47 -17 31 0 53 5 55 12 3 9 -10 12 -46
12 -28 -1 -53 -4 -56 -7z"/>
<path d="M645 2180 c-3 -5 -1 -10 4 -10 6 0 11 5 11 10 0 6 -2 10 -4 10 -3 0
-8 -4 -11 -10z"/>
<path d="M730 2174 c0 -9 11 -14 31 -14 35 0 31 15 -6 22 -17 4 -25 1 -25 -8z"/>
<path d="M807 2184 c-10 -11 3 -24 24 -24 23 0 25 15 3 24 -19 7 -19 7 -27 0z"/>
<path d="M2445 2150 c-4 -6 10 -10 35 -10 25 0 39 4 35 10 -3 6 -19 10 -35 10
-16 0 -32 -4 -35 -10z"/>
<path d="M2560 2143 c0 -8 24 -12 80 -11 73 1 79 2 60 15 -25 18 -140 15 -140
-4z"/>
<path d="M518 2133 c7 -3 16 -2 19 1 4 3 -2 6 -13 5 -11 0 -14 -3 -6 -6z"/>
<path d="M578 2133 c18 -2 45 -2 60 0 15 2 0 4 -33 4 -33 0 -45 -2 -27 -4z"/>
<path d="M2897 2039 c-14 -8 -16 -14 -6 -25 6 -7 16 -11 21 -8 5 3 8 -2 6 -11
-2 -10 3 -20 10 -22 9 -4 10 1 3 20 -7 17 -6 28 2 37 9 10 9 11 0 6 -6 -3 -13
-2 -15 3 -2 6 -10 6 -21 0z"/>
<path d="M2818 2033 c6 -2 18 -2 25 0 6 3 1 5 -13 5 -14 0 -19 -2 -12 -5z"/>
<path d="M18 1883 c12 -2 30 -2 40 0 9 3 -1 5 -23 4 -22 0 -30 -2 -17 -4z"/>
<path d="M113 1883 c15 -2 37 -2 50 0 12 2 0 4 -28 4 -27 0 -38 -2 -22 -4z"/>
<path d="M18 1863 c12 -2 30 -2 40 0 9 3 -1 5 -23 4 -22 0 -30 -2 -17 -4z"/>
<path d="M0 1578 c0 -5 25 -8 55 -8 30 0 55 3 55 8 0 4 -25 7 -55 7 -30 0 -55
-3 -55 -7z"/>
<path d="M290 1565 c0 -13 5 -27 11 -30 11 -8 53 25 44 34 -4 3 -10 -1 -15 -9
-8 -13 -10 -13 -10 1 0 9 -7 19 -15 23 -11 4 -15 -1 -15 -19z"/>
<path d="M3038 1543 c7 -3 16 -2 19 1 4 3 -2 6 -13 5 -11 0 -14 -3 -6 -6z"/>
<path d="M3133 1543 c9 -2 25 -2 35 0 9 3 1 5 -18 5 -19 0 -27 -2 -17 -5z"/>
<path d="M2645 1430 c-17 -6 -15 -8 13 -15 39 -8 48 -4 24 11 -9 6 -26 8 -37
4z"/>
<path d="M2682 1396 c4 -5 3 -15 -2 -21 -13 -15 10 -27 29 -16 8 5 5 13 -11
27 -13 10 -20 15 -16 10z"/>
<path d="M2609 1366 c-33 -8 -43 -14 -35 -22 13 -13 73 3 80 23 3 7 4 12 3 12
-1 -1 -23 -6 -48 -13z"/>
<path d="M2602 1328 l-53 -21 27 -29 c15 -15 31 -28 34 -28 4 0 24 15 44 33
27 23 36 37 31 50 -9 21 -17 21 -83 -5z"/>
<path d="M2701 1315 c-16 -27 -17 -35 -6 -35 7 0 16 4 19 9 3 5 15 7 26 4 17
-4 19 -2 13 13 -16 43 -30 45 -52 9z"/>
<path d="M1900 1260 c0 -5 5 -10 10 -10 6 0 10 5 10 10 0 6 -4 10 -10 10 -5 0
-10 -4 -10 -10z"/>
</g>
</svg>
